# xmcd
#
# Track frame offsets: 
#        150
#        43741
#        57230
#        86619
#        122681
#        144055
#
# Disc length: 2332 seconds
#
# Revision: 0
# Processed by: cddbd v1.5.2PL0 Copyright (c) Steve Scherf et al.
# Submitted via: ExactAudioCopy v0.99pb5
#
DISCID=48091a06
DTITLE=Youngbloods  - Ride The Wind (1971) [vinyl]   FLAC
DYEAR=1900
DGENRE=
TTITLE0=Ride The Wind
TTITLE1=Sugar Babe
TTITLE2=Sunlight
TTITLE3=The Dolphin
TTITLE4=Get Together
TTITLE5=Beautiful
EXTD=
EXTT0=
EXTT1=
EXTT2=
EXTT3=
EXTT4=
EXTT5=
PLAYORDER=
